<svg width="24" height="24" viewBox="0 0 24 24" fill="gray" stroke="gray" stroke-width="1" xmlns="http://www.w3.org/2000/svg">
<path d="M12 3.99989C9 2 5.5 2.49989 5.5 2.49989V6.49989H18.5V2.49989C18.5 2.49989 15 1.99989 12 3.99989Z" />
<path d="M5.5 11.5V6.5H18.5V11.5M5.5 11.5H5C4.44772 11.5 4 11.9477 4 12.5C4 14.1569 5.34315 15.5 7 15.5H9.5C10.0523 15.5 10.5 15.9477 10.5 16.5V20.5C10.5 21.3284 11.1716 22 12 22C12.8284 22 13.5 21.3284 13.5 20.5V16.5C13.5 15.9477 13.9477 15.5 14.5 15.5H17C18.6569 15.5 20 14.1569 20 12.5C20 11.9477 19.5523 11.5 19 11.5H18.5M5.5 11.5H18.5" fill="none" />
</svg>
