<svg width="24" height="24" viewBox="0 0 24 24" fill="none" xmlns="http://www.w3.org/2000/svg">
<path d="M12.4727 3C14.1854 3 15.7694 3.33333 17.2248 3.99998C18.6803 4.66664 19.8309 5.57316 20.6766 6.71953C21.5224 7.86586 21.9453 9.11629 21.9453 10.4708C21.9453 11.8252 21.5224 13.0774 20.6766 14.2273C19.8309 15.3772 18.682 16.2855 17.2301 16.9521C15.7782 17.6188 14.1924 17.9521 12.4727 17.9521C11.93 17.9521 11.3696 17.9133 10.7917 17.8357C8.28254 19.5782 6.94695 20.46 6.78484 20.4812C6.7073 20.5094 6.63328 20.5059 6.56281 20.4706C6.53461 20.4495 6.51348 20.4212 6.49937 20.3859C6.48527 20.3507 6.47824 20.3189 6.47824 20.2907V20.2484C6.52055 19.9732 6.84121 18.8269 7.44031 16.8093C6.08002 16.1321 4.9999 15.2344 4.19994 14.1162C3.39998 12.9981 3 11.7829 3 10.4708C3 9.11629 3.42289 7.86586 4.26866 6.71953C5.11443 5.57316 6.26503 4.66664 7.72047 3.99998C9.1759 3.33333 10.76 3 12.4727 3Z" fill="#181600"/>
</svg>
