<svg width="32" height="32" viewBox="0 0 32 32" fill="none" stroke="black" stroke-width="1" xmlns="http://www.w3.org/2000/svg">
<path d="M10.5 0.910836C10.5 0.516291 10.9356 0.277184 11.2684 0.489006L21.2684 6.85264C21.4127 6.94442 21.5 7.10352 21.5 7.27447V31.0892C21.5 31.4837 21.0644 31.7228 20.7316 31.511L10.7316 25.1474C10.5873 25.0556 10.5 24.8965 10.5 24.7255V0.910836Z" />
<path d="M23.5 7.22689C23.5 7.0827 23.5622 6.94554 23.6707 6.8506L30.6707 0.725595C30.994 0.442715 31.5 0.672305 31.5 1.10188V24.7731C31.5 24.9173 31.4378 25.0545 31.3293 25.1494L24.3293 31.2744C24.006 31.5573 23.5 31.3277 23.5 30.8981V7.22689Z" />
<path d="M0.5 7.22689C0.5 7.0827 0.56224 6.94554 0.670748 6.8506L7.67075 0.725595C7.99404 0.442715 8.5 0.672304 8.5 1.10188V24.7731C8.5 24.9173 8.43776 25.0545 8.32926 25.1494L1.32925 31.2744C1.00596 31.5573 0.5 31.3277 0.5 30.8981V7.22689Z" />
</svg>
