<svg width="57" height="20" viewBox="0 0 57 20" fill="none" xmlns="http://www.w3.org/2000/svg">
<path d="M10.68 2.26H6.52V15.16H4.38V2.26H0.2V0.4H10.68V2.26ZM12.3717 5.64H14.4917V7.04C14.8117 6.58667 15.2384 6.22667 15.7717 5.96C16.3051 5.69333 16.8517 5.57333 17.4117 5.6V7.56C16.8651 7.53333 16.3651 7.66 15.9117 7.94C15.4717 8.20667 15.1251 8.56667 14.8717 9.02C14.6184 9.47333 14.4917 9.94667 14.4917 10.44V15.18H12.3717V5.64ZM21.9588 5.62V15.16H19.8388V5.62H21.9588ZM20.8988 0.86C21.2454 0.86 21.5321 0.973333 21.7588 1.2C21.9854 1.42667 22.0988 1.71333 22.0988 2.06C22.0988 2.40667 21.9854 2.69333 21.7588 2.92C21.5321 3.14667 21.2454 3.26 20.8988 3.26C20.5521 3.26 20.2654 3.14667 20.0388 2.92C19.8121 2.69333 19.6988 2.40667 19.6988 2.06C19.6988 1.71333 19.8121 1.42667 20.0388 1.2C20.2654 0.973333 20.5521 0.86 20.8988 0.86ZM29.7931 13.44C30.5665 13.44 31.1798 13.1667 31.6331 12.62C32.0998 12.06 32.3331 11.3267 32.3331 10.42C32.3331 9.51333 32.0998 8.78667 31.6331 8.24C31.1798 7.68 30.5665 7.4 29.7931 7.4C29.3265 7.4 28.8865 7.53333 28.4731 7.8C28.0731 8.06667 27.7531 8.43333 27.5131 8.9C27.2865 9.36667 27.1731 9.87333 27.1731 10.42C27.1731 10.9667 27.2865 11.4733 27.5131 11.94C27.7531 12.4067 28.0731 12.7733 28.4731 13.04C28.8865 13.3067 29.3265 13.44 29.7931 13.44ZM29.9131 5.62C30.7931 5.62 31.5731 5.82667 32.2531 6.24C32.9465 6.64 33.4865 7.20667 33.8731 7.94C34.2598 8.66 34.4531 9.48667 34.4531 10.42C34.4531 11.3533 34.2598 12.1867 33.8731 12.92C33.4865 13.6533 32.9465 14.2267 32.2531 14.64C31.5731 15.04 30.7931 15.24 29.9131 15.24C29.4731 15.24 28.9865 15.12 28.4531 14.88C27.9331 14.64 27.4998 14.2867 27.1531 13.82V19.4H25.0331V5.62H27.1531V7.02C27.4998 6.56667 27.9398 6.22 28.4731 5.98C29.0065 5.74 29.4865 5.62 29.9131 5.62ZM41.4728 13.44C42.2461 13.44 42.8595 13.1667 43.3128 12.62C43.7795 12.06 44.0128 11.3267 44.0128 10.42C44.0128 9.51333 43.7795 8.78667 43.3128 8.24C42.8595 7.68 42.2461 7.4 41.4728 7.4C41.0061 7.4 40.5661 7.53333 40.1528 7.8C39.7528 8.06667 39.4328 8.43333 39.1928 8.9C38.9661 9.36667 38.8528 9.87333 38.8528 10.42C38.8528 10.9667 38.9661 11.4733 39.1928 11.94C39.4328 12.4067 39.7528 12.7733 40.1528 13.04C40.5661 13.3067 41.0061 13.44 41.4728 13.44ZM41.5928 5.62C42.4728 5.62 43.2528 5.82667 43.9328 6.24C44.6261 6.64 45.1661 7.20667 45.5528 7.94C45.9395 8.66 46.1328 9.48667 46.1328 10.42C46.1328 11.3533 45.9395 12.1867 45.5528 12.92C45.1661 13.6533 44.6261 14.2267 43.9328 14.64C43.2528 15.04 42.4728 15.24 41.5928 15.24C41.1528 15.24 40.6661 15.12 40.1328 14.88C39.6128 14.64 39.1795 14.2867 38.8328 13.82V19.4H36.7128V5.62H38.8328V7.02C39.1795 6.56667 39.6195 6.22 40.1528 5.98C40.6861 5.74 41.1661 5.62 41.5928 5.62ZM48.7317 19.32L50.8117 14.38L46.9717 5.64H49.3117L51.9317 11.96L54.4517 5.64H56.7517L53.1917 14.22L51.0517 19.32H48.7317Z" fill="#CB0404"/>
</svg>
